<?xml version="1.0" encoding="utf-8"?>
<!-- Generator: Adobe Illustrator 16.0.0, SVG Export Plug-In . SVG Version: 6.00 Build 0)  -->
<!DOCTYPE svg PUBLIC "-//W3C//DTD SVG 1.1//EN" "http://www.w3.org/Graphics/SVG/1.1/DTD/svg11.dtd">
<svg version="1.1" xmlns="http://www.w3.org/2000/svg" xmlns:xlink="http://www.w3.org/1999/xlink" x="0px" y="0px" width="216px"
	 height="216px" viewBox="0 0 216 216" enable-background="new 0 0 216 216" xml:space="preserve">
<g id="Layer_6">
	<circle fill-rule="evenodd" clip-rule="evenodd" fill="#523E33" cx="109.8" cy="107.799" r="106.2"/>
</g>
<g id="Layer_4">
</g>
<g id="Layer_5">
	<g>
		<path fill="#94C83F" d="M90.921,178.03c0,1.704-0.3,3.117-0.897,4.237c-0.599,1.121-1.41,2.021-2.433,2.699
			c-1.024,0.68-2.205,1.152-3.543,1.421c-1.339,0.268-2.764,0.402-4.275,0.402c-1.323,0-2.693-0.142-4.11-0.426
			c-1.418-0.284-2.787-0.6-4.109-0.947l1.184-3.03c1.137,0.442,2.289,0.837,3.457,1.184c1.167,0.348,2.383,0.521,3.646,0.521
			c0.916,0,1.823-0.086,2.723-0.26c0.899-0.174,1.712-0.489,2.438-0.947c0.726-0.457,1.31-1.065,1.752-1.823
			c0.441-0.758,0.663-1.735,0.663-2.936c0-1.042-0.221-1.91-0.663-2.604c-0.443-0.694-1.018-1.286-1.729-1.776
			c-0.71-0.489-1.532-0.915-2.462-1.278c-0.932-0.362-1.887-0.718-2.865-1.065c-1.01-0.379-2.005-0.781-2.983-1.208
			c-0.979-0.426-1.847-0.962-2.604-1.609c-0.758-0.646-1.374-1.437-1.847-2.368c-0.473-0.931-0.71-2.06-0.71-3.386
			c0-1.451,0.296-2.683,0.888-3.693c0.592-1.01,1.381-1.831,2.368-2.463c0.986-0.631,2.126-1.096,3.421-1.396
			c1.294-0.3,2.652-0.45,4.072-0.45c1.042,0,2.25,0.095,3.623,0.284c1.374,0.189,2.691,0.506,3.954,0.947l-1.184,3.03
			c-0.884-0.379-1.808-0.733-2.771-1.065c-0.963-0.331-2.186-0.497-3.67-0.497c-2.178,0-3.923,0.435-5.232,1.303
			c-1.311,0.868-1.965,2.202-1.965,4.001c0,0.758,0.166,1.413,0.498,1.965c0.331,0.553,0.765,1.035,1.302,1.444
			c0.536,0.411,1.167,0.774,1.894,1.09c0.726,0.315,1.499,0.615,2.32,0.899c1.136,0.411,2.289,0.845,3.457,1.303
			c1.167,0.458,2.226,1.041,3.172,1.752c0.947,0.71,1.72,1.603,2.32,2.675C90.621,175.031,90.921,176.389,90.921,178.03z"/>
		<path fill="#94C83F" d="M109.295,158.094v27.892h-3.504v-27.892h-9.044v-2.746h21.641v2.746H109.295z"/>
		<path fill="#94C83F" d="M144.431,164.061c0,3.188-0.84,5.485-2.518,6.89c-1.679,1.405-4.056,2.107-7.131,2.107h-5.884v12.928
			h-3.504v-30.638h8.833c1.544,0,2.945,0.149,4.204,0.449c1.26,0.301,2.338,0.798,3.235,1.492s1.583,1.595,2.055,2.699
			C144.194,161.094,144.431,162.45,144.431,164.061z M140.927,164.061c0-1.231-0.157-2.233-0.472-3.007s-0.771-1.389-1.368-1.847
			s-1.305-0.766-2.122-0.924c-0.818-0.157-1.746-0.236-2.783-0.236h-5.283v12.312h5.52c1.037,0,1.957-0.095,2.759-0.284
			s1.486-0.528,2.052-1.018c0.566-0.489,0.991-1.137,1.273-1.941C140.784,166.31,140.927,165.292,140.927,164.061z"/>
	</g>
</g>
<g id="Layer_2_xA0_Image_1_">
	<g>
		<path fill-rule="evenodd" clip-rule="evenodd" fill="#D5E7B7" d="M109.92,29.68c3.273,3.08,6.546,6.16,9.819,9.241
			c1.479,1.392,2.96,2.779,4.435,4.175c3.267,3.094,6.53,6.191,9.791,9.291c0.084,0.08,0.131,0.197,0.195,0.297
			c0.003,7.381,0.007,14.762,0.011,22.142c-2.088-1.909-4.203-3.789-6.26-5.73c-5.372-5.071-10.716-10.171-16.078-15.251
			c-0.744-0.704-1.529-1.364-2.324-2.07c-3.193,2.314-6.324,4.587-9.46,6.854c-5.336,3.857-10.96,7.71-16.299,11.565
			c-0.012-1.936,0.038-3.873,0-5.808c-0.01-0.53,0.079-1.057,0-1.586c-0.002-2.316,0.002-4.631,0-6.947
			c-0.001-2.327,0.002-4.654,0-6.981c0,0,12.136-9.01,18.075-13.362c2.63-1.927,5.238-3.885,7.855-5.829
			C109.76,29.68,109.84,29.68,109.92,29.68z"/>
		<path fill-rule="evenodd" clip-rule="evenodd" fill="#93877D" d="M119.521,138.16c-7.36,0-14.963,0-22.323,0
			c0-11.622,0.017-36.478,0-36.534c3.087-2.251,6.175-4.502,9.263-6.753c1.897-1.383,1.896-1.382,3.73-0.049
			c0.258,0.188,0.533,0.351,0.79,0.54c2.851,2.098,5.699,4.199,8.548,6.299C119.525,113.828,119.522,125.994,119.521,138.16z"/>
		<path fill-rule="evenodd" clip-rule="evenodd" fill="#A9A892" d="M71.7,79.071"/>
		<path fill-rule="evenodd" clip-rule="evenodd" fill="#93C740" d="M71.7,79.071l0.016,0.009c0.238-0.167,11.088-8.102,12.034-8.812
			c0.092-0.025-0.092-0.05,0-0.075c5.338-3.855,10.962-7.708,16.299-11.565c3.136-2.267,6.267-4.54,9.46-6.854
			c0.795,0.706,1.58,1.366,2.324,2.07c5.362,5.081,10.706,10.181,16.078,15.251c2.057,1.941,4.172,3.822,6.26,5.73l0.096,0.014
			l0.097-0.01l0.005,0.001c0.106,0.149,0.212,0.299,0.317,0.448c0.147,0.146,0.294,0.292,0.441,0.438
			c0.087,0.081,0.173,0.163,0.26,0.244l0.013,0.008c0.077,0.075,0.155,0.149,0.233,0.224c0,0,0.014,0.014,0.013,0.014
			c0.076,0.075,0.151,0.15,0.228,0.225c0,0,0.014,0.014,0.014,0.015c0.075,0.075,0.15,0.15,0.227,0.225l0.014,0.014
			c0.076,0.07,0.153,0.14,0.229,0.209l0.03,0.02c0.072,0.067,0.146,0.134,0.219,0.201c0,0,0.037,0.037,0.037,0.038
			c0.068,0.068,0.136,0.136,0.204,0.204l0.035,0.036c0.067,0.068,0.136,0.136,0.205,0.205l0.034,0.035
			c0.068,0.065,0.137,0.13,0.206,0.195l0.036,0.03c0.133,0.112,0.265,0.224,0.397,0.335c2.216,2.075,4.456,4.125,6.627,6.246
			c0.433,0.423,0.849,1.12,0.852,1.692c0.05,11.037,0.038,22.075,0.035,33.113c0,0.268-0.038,0.536-0.076,1.044
			c-1.292-0.921-2.449-1.735-3.595-2.564c-6.95-5.028-21.909-15.865-22.075-16.062c-2.849-2.1-5.697-4.201-8.548-6.299
			c-0.257-0.189-0.532-0.353-0.79-0.54c-1.834-1.333-1.833-1.334-3.73,0.049c-3.088,2.251-6.175,4.502-9.263,6.754
			c-0.224,0.195-25.009,18.31-25.457,18.461c0-6.98,0-14.109,0-20.981c0.006-1.397,0.041-2.795,0.01-4.192
			c-0.022-1.019-0.128-2.037-0.198-3.055"/>
		<path fill-rule="evenodd" clip-rule="evenodd" fill="#B6BC9A" d="M137.761,78.193c-0.133-0.112-0.265-0.224-0.397-0.335
			C137.496,77.97,137.628,78.082,137.761,78.193z"/>
		<path fill-rule="evenodd" clip-rule="evenodd" fill="#B6BC9A" d="M134.686,75.28c-0.105-0.149-0.211-0.299-0.317-0.448
			C134.474,74.981,134.58,75.13,134.686,75.28z"/>
		<path fill-rule="evenodd" clip-rule="evenodd" fill="#B6BC9A" d="M136.605,77.116c-0.073-0.067-0.146-0.134-0.219-0.201
			C136.46,76.982,136.532,77.048,136.605,77.116z"/>
		<path fill-rule="evenodd" clip-rule="evenodd" fill="#B6BC9A" d="M136.356,76.896c-0.076-0.07-0.153-0.14-0.229-0.209
			C136.203,76.756,136.28,76.826,136.356,76.896z"/>
		<path fill-rule="evenodd" clip-rule="evenodd" fill="#B6BC9A" d="M136.113,76.672c-0.076-0.075-0.151-0.15-0.227-0.225
			C135.962,76.522,136.038,76.597,136.113,76.672z"/>
		<path fill-rule="evenodd" clip-rule="evenodd" fill="#B6BC9A" d="M137.327,77.828c-0.069-0.065-0.138-0.13-0.206-0.195
			C137.189,77.698,137.258,77.763,137.327,77.828z"/>
		<path fill-rule="evenodd" clip-rule="evenodd" fill="#B6BC9A" d="M135.873,76.433c-0.076-0.075-0.151-0.15-0.228-0.225
			C135.722,76.282,135.798,76.357,135.873,76.433z"/>
		<path fill-rule="evenodd" clip-rule="evenodd" fill="#B6BC9A" d="M135.633,76.193c-0.078-0.075-0.156-0.149-0.233-0.224
			C135.477,76.044,135.555,76.119,135.633,76.193z"/>
		<path fill-rule="evenodd" clip-rule="evenodd" fill="#B6BC9A" d="M136.847,77.357c-0.068-0.068-0.136-0.136-0.204-0.204
			C136.711,77.221,136.778,77.289,136.847,77.357z"/>
		<path fill-rule="evenodd" clip-rule="evenodd" fill="#B6BC9A" d="M135.387,75.961c-0.087-0.081-0.173-0.163-0.26-0.244
			C135.214,75.799,135.3,75.88,135.387,75.961z"/>
		<path fill-rule="evenodd" clip-rule="evenodd" fill="#B6BC9A" d="M137.087,77.598c-0.069-0.068-0.138-0.136-0.205-0.205
			C136.95,77.461,137.019,77.529,137.087,77.598z"/>
		<path fill-rule="evenodd" clip-rule="evenodd" fill="#B6BE95" d="M83.75,62.799"/>
		<path fill-rule="evenodd" clip-rule="evenodd" fill="#B6BE95" d="M83.75,70.193c-0.092,0.025,0.092,0.05,0,0.075"/>
		<path fill-rule="evenodd" clip-rule="evenodd" fill="#A9A892" d="M79.379,73.532c-0.236,0.167-0.472,0.335-0.708,0.503
			C78.907,73.867,79.144,73.7,79.379,73.532z"/>
		<path fill-rule="evenodd" clip-rule="evenodd" fill="#A9A892" d="M78.684,74.029c-0.238,0.169-0.476,0.339-0.714,0.509
			C78.208,74.369,78.446,74.199,78.684,74.029z"/>
		<path fill-rule="evenodd" clip-rule="evenodd" fill="#A9A892" d="M77.712,74.74c-0.238,0.168-0.475,0.336-0.713,0.504
			C77.236,75.077,77.474,74.908,77.712,74.74z"/>
		<path fill-rule="evenodd" clip-rule="evenodd" fill="#A9A892" d="M76.74,75.453c-0.235,0.168-0.471,0.336-0.707,0.504
			C76.269,75.789,76.504,75.621,76.74,75.453z"/>
		<path fill-rule="evenodd" clip-rule="evenodd" fill="#A9A892" d="M76.046,75.951c-0.239,0.169-0.479,0.337-0.718,0.506
			C75.567,76.288,75.807,76.119,76.046,75.951z"/>
		<path fill-rule="evenodd" clip-rule="evenodd" fill="#A9A892" d="M75.071,76.66c-0.237,0.168-0.475,0.337-0.712,0.505
			C74.597,76.997,74.834,76.828,75.071,76.66z"/>
		<path fill-rule="evenodd" clip-rule="evenodd" fill="#A9A892" d="M74.1,77.373c-0.236,0.167-0.473,0.333-0.709,0.5
			C73.627,77.706,73.863,77.539,74.1,77.373z"/>
		<path fill-rule="evenodd" clip-rule="evenodd" fill="#A9A892" d="M73.403,77.867c-0.239,0.169-0.478,0.338-0.717,0.506
			C72.924,78.205,73.164,78.036,73.403,77.867z"/>
		<path fill-rule="evenodd" clip-rule="evenodd" fill="#A9A892" d="M72.429,78.579c-0.238,0.167-0.476,0.334-0.713,0.501
			C71.953,78.913,72.191,78.746,72.429,78.579z"/>
		<path fill-rule="evenodd" clip-rule="evenodd" fill="#A9A892" d="M80.358,72.825c-0.24,0.167-0.479,0.333-0.719,0.5
			C79.878,73.158,80.118,72.991,80.358,72.825z"/>
		<path fill-rule="evenodd" clip-rule="evenodd" fill="#A9A892" d="M80.921,72.396c-0.191,0.144-0.382,0.288-0.573,0.432
			C80.539,72.684,80.73,72.54,80.921,72.396z"/>
		<path fill-rule="evenodd" clip-rule="evenodd" fill="#A9A892" d="M75.341,76.449c-0.089,0.07-0.179,0.141-0.269,0.212
			C75.162,76.59,75.251,76.52,75.341,76.449z"/>
		<path fill-rule="evenodd" clip-rule="evenodd" fill="#A9A892" d="M77.009,75.239c-0.087,0.07-0.174,0.141-0.262,0.211
			C76.834,75.379,76.921,75.309,77.009,75.239z"/>
		<path fill-rule="evenodd" clip-rule="evenodd" fill="#A9A892" d="M74.37,77.159c-0.088,0.07-0.175,0.141-0.263,0.211
			C74.194,77.299,74.282,77.229,74.37,77.159z"/>
		<path fill-rule="evenodd" clip-rule="evenodd" fill="#A9A892" d="M77.982,74.53c-0.09,0.071-0.18,0.141-0.27,0.211
			C77.802,74.671,77.892,74.601,77.982,74.53z"/>
		<path fill-rule="evenodd" clip-rule="evenodd" fill="#A9A892" d="M79.649,73.318c-0.087,0.07-0.175,0.141-0.263,0.211
			C79.474,73.459,79.561,73.389,79.649,73.318z"/>
		<path fill-rule="evenodd" clip-rule="evenodd" fill="#A9A892" d="M72.698,78.366c-0.089,0.071-0.178,0.142-0.267,0.212
			C72.52,78.508,72.608,78.437,72.698,78.366z"/>
		<path fill-rule="evenodd" clip-rule="evenodd" fill="#AEAD95" d="M72.763,119.488c0.323-0.237,0.646-0.476,0.968-0.713
			C73.409,119.014,73.086,119.251,72.763,119.488z"/>
		<path fill-rule="evenodd" clip-rule="evenodd" fill="#AEAD95" d="M75.403,117.568c0.322-0.238,0.645-0.477,0.967-0.715
			C76.048,117.092,75.725,117.33,75.403,117.568z"/>
		<path fill-rule="evenodd" clip-rule="evenodd" fill="#AEAD95" d="M78.045,115.649c0.322-0.238,0.644-0.476,0.966-0.714
			C78.689,115.174,78.367,115.412,78.045,115.649z"/>
		<path fill-rule="evenodd" clip-rule="evenodd" fill="#AEAD95" d="M80.687,113.73c0.32-0.24,0.641-0.479,0.962-0.72
			C81.328,113.251,81.007,113.49,80.687,113.73z"/>
		<path fill-rule="evenodd" clip-rule="evenodd" fill="#AEAD95" d="M85.968,109.893c0.322-0.238,0.643-0.476,0.965-0.713
			C86.612,109.417,86.29,109.654,85.968,109.893z"/>
		<path fill-rule="evenodd" clip-rule="evenodd" fill="#AEAD95" d="M88.608,107.972c0.321-0.237,0.643-0.476,0.965-0.713
			C89.251,107.496,88.93,107.734,88.608,107.972z"/>
		<path fill-rule="evenodd" clip-rule="evenodd" fill="#AEAD95" d="M93.888,104.132c0.322-0.237,0.644-0.475,0.966-0.711
			C94.532,103.658,94.21,103.895,93.888,104.132z"/>
		<path fill-rule="evenodd" clip-rule="evenodd" fill="#AEAD95" d="M91.247,106.051c0.322-0.237,0.644-0.475,0.966-0.712
			C91.891,105.576,91.569,105.814,91.247,106.051z"/>
		<path fill-rule="evenodd" clip-rule="evenodd" fill="#AEAD95" d="M73.731,118.776c0.234-0.166,0.469-0.333,0.704-0.499
			C74.201,118.444,73.966,118.61,73.731,118.776z"/>
		<path fill-rule="evenodd" clip-rule="evenodd" fill="#AEAD95" d="M79.012,114.937c0.234-0.166,0.469-0.331,0.704-0.497
			C79.481,114.605,79.246,114.771,79.012,114.937z"/>
		<path fill-rule="evenodd" clip-rule="evenodd" fill="#AEAD95" d="M94.858,103.42c0.234-0.165,0.468-0.33,0.702-0.495
			C95.326,103.09,95.092,103.255,94.858,103.42z"/>
		<path fill-rule="evenodd" clip-rule="evenodd" fill="#AEAD95" d="M76.369,116.855c0.235-0.166,0.471-0.332,0.706-0.498
			C76.84,116.523,76.604,116.689,76.369,116.855z"/>
		<path fill-rule="evenodd" clip-rule="evenodd" fill="#AEAD95" d="M81.646,113.014c0.236-0.166,0.472-0.331,0.708-0.496
			C82.119,112.683,81.882,112.848,81.646,113.014z"/>
		<path fill-rule="evenodd" clip-rule="evenodd" fill="#AEAD95" d="M84.295,111.099c0.235-0.165,0.47-0.329,0.705-0.493
			C84.765,110.77,84.53,110.935,84.295,111.099z"/>
		<path fill-rule="evenodd" clip-rule="evenodd" fill="#AEAD95" d="M86.936,109.179c0.234-0.165,0.468-0.33,0.703-0.495
			C87.405,108.849,87.17,109.014,86.936,109.179z"/>
		<path fill-rule="evenodd" clip-rule="evenodd" fill="#AEAD95" d="M89.576,107.258c0.234-0.164,0.469-0.328,0.704-0.493
			C90.045,106.93,89.81,107.094,89.576,107.258z"/>
		<path fill-rule="evenodd" clip-rule="evenodd" fill="#AEAD95" d="M92.215,105.338c0.234-0.165,0.469-0.33,0.704-0.495
			C92.685,105.009,92.45,105.173,92.215,105.338z"/>
		<path fill-rule="evenodd" clip-rule="evenodd" fill="#AEAD95" d="M95.821,102.704c0.235-0.165,0.471-0.329,0.707-0.493
			C96.292,102.375,96.057,102.54,95.821,102.704z"/>
		<path fill-rule="evenodd" clip-rule="evenodd" fill="#AEAD95" d="M93.183,104.625c0.235-0.164,0.471-0.328,0.707-0.492
			C93.653,104.296,93.418,104.46,93.183,104.625z"/>
		<path fill-rule="evenodd" clip-rule="evenodd" fill="#AEAD95" d="M90.543,106.545c0.235-0.165,0.47-0.329,0.705-0.494
			C91.014,106.216,90.778,106.381,90.543,106.545z"/>
		<path fill-rule="evenodd" clip-rule="evenodd" fill="#AEAD95" d="M87.901,108.464c0.236-0.164,0.471-0.328,0.707-0.492
			C88.373,108.136,88.137,108.3,87.901,108.464z"/>
		<path fill-rule="evenodd" clip-rule="evenodd" fill="#AEAD95" d="M85.262,110.385c0.235-0.164,0.471-0.328,0.707-0.492
			C85.733,110.057,85.498,110.221,85.262,110.385z"/>
		<path fill-rule="evenodd" clip-rule="evenodd" fill="#AEAD95" d="M83.592,111.591c0.233-0.164,0.467-0.328,0.701-0.491
			C84.06,111.264,83.826,111.427,83.592,111.591z"/>
		<path fill-rule="evenodd" clip-rule="evenodd" fill="#AEAD95" d="M82.621,112.304c0.235-0.166,0.47-0.332,0.705-0.497
			C83.091,111.973,82.856,112.138,82.621,112.304z"/>
		<path fill-rule="evenodd" clip-rule="evenodd" fill="#AEAD95" d="M79.98,114.223c0.236-0.164,0.471-0.329,0.707-0.493
			C80.452,113.895,80.216,114.059,79.98,114.223z"/>
		<path fill-rule="evenodd" clip-rule="evenodd" fill="#AEAD95" d="M77.342,116.145c0.235-0.166,0.47-0.331,0.705-0.496
			C77.813,115.813,77.577,115.979,77.342,116.145z"/>
		<path fill-rule="evenodd" clip-rule="evenodd" fill="#AEAD95" d="M74.7,118.063c0.235-0.165,0.471-0.331,0.706-0.496
			C75.171,117.732,74.936,117.897,74.7,118.063z"/>
		<path fill-rule="evenodd" clip-rule="evenodd" fill="#AEAD95" d="M90.275,106.76c0.084-0.069,0.169-0.139,0.254-0.208
			C90.445,106.621,90.36,106.69,90.275,106.76z"/>
		<path fill-rule="evenodd" clip-rule="evenodd" fill="#AEAD95" d="M95.556,102.92c0.084-0.07,0.169-0.14,0.253-0.21
			C95.725,102.78,95.64,102.85,95.556,102.92z"/>
		<path fill-rule="evenodd" clip-rule="evenodd" fill="#AEAD95" d="M87.634,108.679c0.085-0.069,0.17-0.14,0.255-0.209
			C87.804,108.54,87.719,108.609,87.634,108.679z"/>
		<path fill-rule="evenodd" clip-rule="evenodd" fill="#AEAD95" d="M83.326,111.807c0.082-0.069,0.165-0.138,0.247-0.206
			C83.491,111.67,83.409,111.738,83.326,111.807z"/>
		<path fill-rule="evenodd" clip-rule="evenodd" fill="#AEAD95" d="M82.348,112.515c0.087-0.068,0.174-0.137,0.261-0.205
			C82.521,112.379,82.435,112.446,82.348,112.515z"/>
		<path fill-rule="evenodd" clip-rule="evenodd" fill="#AEAD95" d="M92.914,104.838c0.085-0.069,0.169-0.139,0.255-0.208
			C93.084,104.7,92.999,104.77,92.914,104.838z"/>
		<path fill-rule="evenodd" clip-rule="evenodd" fill="#AEAD95" d="M79.71,114.437c0.086-0.069,0.172-0.139,0.259-0.207
			C79.882,114.298,79.796,114.367,79.71,114.437z"/>
		<path fill-rule="evenodd" clip-rule="evenodd" fill="#AEAD95" d="M77.067,116.355c0.087-0.068,0.174-0.137,0.261-0.205
			C77.242,116.219,77.155,116.287,77.067,116.355z"/>
		<path fill-rule="evenodd" clip-rule="evenodd" fill="#AEAD95" d="M74.428,118.275c0.087-0.069,0.174-0.138,0.261-0.207
			C74.602,118.138,74.515,118.207,74.428,118.275z"/>
		<path fill-rule="evenodd" clip-rule="evenodd" fill="#AEAD95" d="M84.996,110.601c0.084-0.07,0.168-0.141,0.253-0.21
			C85.165,110.461,85.081,110.53,84.996,110.601z"/>
	</g>
</g>
<g id="Layer_7">
</g>
</svg>
